<?xml version="1.0" encoding="UTF-8"?><svg id="a" xmlns="http://www.w3.org/2000/svg" viewBox="0 0 799.99 557.97"><path d="M794.02,259.48c-8.59-9.81-23.61-10.72-33.42-2.05l-69.8,61.79-197.17,174.46c-12.43,10.96-28.25,16.85-44.51,16.85-4.74,0-9.47-.46-14.23-1.47l-112.7-24.98-136.08-30.03-95.43-21.12-13.65-3.05c-4.32-1.47-8.15-3.37-11.52-5.88-5.42-3.93-9.72-9.03-12.67-14.89-3.03-5.88-4.61-12.43-4.61-19.09,0-4.08.68-8.35,1.9-12.52,1.49-4.52,3.61-8.59,6.23-12.21,3.83-5.42,9.03-9.72,14.89-12.65,5.79-3.05,12.3-4.61,18.99-4.61,1.12,0,2.25.1,3.37.1l98.36,21.24,228.12,49.34c28.25,6.2,57.72-1.47,79.4-20.65l140.26-123.56,143.21-126.15c12.87-11.4,18.29-29.03,13.89-45.61-4.3-16.72-17.63-29.49-34.45-33.11l-17.85-3.83-130.1-28.12L449.68,2.11c-28.22-6.2-57.69,1.47-79.4,20.68l-220.09,193.34-66.19,58.15-57.59,50.59c-2.37,2.71-4.4,5.42-6.2,8.35-1.03,1.25-1.93,2.37-2.83,3.74-5.64,7.69-10.16,16.48-13.21,26.1-2.83,8.91-4.17,18.07-4.17,26.98,0,19.31,6.2,37.72,17.16,52.86,5.52,7.69,12.18,14.45,20,20.09,7.67,5.66,16.48,10.18,26.07,13.11l1.02.34,100.39,22.02,95.09,20.78,165.11,36.13c8.01,1.81,16.14,2.61,24.27,2.61,27.66,0,54.66-9.94,75.9-28.59l5.64-4.96,196.05-173.58,65.28-57.81c9.82-8.72,10.72-23.71,2.03-33.55Z"/></svg>